<svg width="37" height="37" viewBox="0 0 37 37" fill="none" xmlns="http://www.w3.org/2000/svg">
<rect width="36.993" height="37" rx="18.4965" fill="#1A7BA0"/>
<path fill-rule="evenodd" clip-rule="evenodd" d="M15.4609 19.5173C15.1673 19.2602 14.9993 18.8894 14.9993 18.5C14.9993 18.1105 15.1673 17.7389 15.4609 17.4826C17.5686 15.6388 22.0521 11.7154 24.7731 9.33455C25.1727 8.98498 25.7387 8.90182 26.2223 9.12074C26.7051 9.33966 27.0156 9.8216 27.0156 10.3519L27.0156 26.6481C27.0156 27.1784 26.7051 27.6603 26.2223 27.8793C25.7395 28.0982 25.1727 28.015 24.7731 27.6654C22.0528 25.2846 17.5684 21.3612 15.4609 19.5174L15.4609 19.5173Z" fill="white"/>
<path fill-rule="evenodd" clip-rule="evenodd" d="M5.46086 19.5173C5.16728 19.2602 4.99928 18.8894 4.99928 18.5C4.99928 18.1105 5.16728 17.7389 5.46086 17.4826C7.56857 15.6388 12.0521 11.7154 14.7731 9.33455C15.1727 8.98498 15.7387 8.90182 16.2223 9.12074C16.7051 9.33966 17.0156 9.8216 17.0156 10.3519L17.0156 26.6481C17.0156 27.1784 16.7051 27.6603 16.2223 27.8793C15.7395 28.0982 15.1727 28.015 14.7731 27.6654C12.0528 25.2846 7.56839 21.3612 5.46086 19.5174L5.46086 19.5173Z" fill="white"/>
</svg>
