<svg width="40" height="40" viewBox="0 0 40 40" fill="none" xmlns="http://www.w3.org/2000/svg">
<rect width="40" height="40" rx="20" fill="#1A7BA0"/>
<path d="M19.9998 13.0942C16.2999 13.0942 13.3301 16.0936 13.3301 19.794C13.3301 21.5626 14.5328 23.351 16.045 25.3157C17.5576 27.281 15.4623 28.9471 19.9995 28.9471C24.5378 28.9471 22.4429 27.2811 23.955 25.3157C25.4676 23.351 26.6707 21.5627 26.6707 19.794C26.6709 16.0936 23.7014 13.0942 19.9998 13.0942Z" fill="white"/>
<path d="M27.0001 7.87538C26.6476 7.67223 26.1971 7.79234 25.994 8.14506L24.5502 10.647C24.3467 10.9995 24.4668 11.4503 24.8195 11.6532C24.9353 11.7204 25.0622 11.7518 25.1873 11.7518C25.4418 11.7518 25.69 11.6198 25.8269 11.3835L27.2708 8.88153C27.4734 8.52961 27.3527 8.07885 27.0001 7.87538Z" fill="white"/>
<path d="M20.0007 10.3625C20.408 10.3625 20.7374 10.0325 20.7374 9.62547V6.73707C20.7374 6.32985 20.4076 6 20.0007 6C19.5938 6 19.2637 6.33004 19.2637 6.73707V9.62495C19.2637 10.0323 19.5938 10.3623 20.0007 10.3623V10.3625Z" fill="white"/>
<path d="M14.8129 11.7519C14.9376 11.7519 15.0648 11.7202 15.1806 11.6535C15.5328 11.4501 15.6539 10.999 15.4503 10.6471L14.0058 8.14545C13.8027 7.79291 13.3519 7.6722 12.9994 7.87577C12.6472 8.07923 12.5261 8.53029 12.7297 8.88221L14.1739 11.3838C14.3104 11.6202 14.5581 11.7519 14.8129 11.7519Z" fill="white"/>
<path d="M33.2636 19.2637H30.3757C29.9682 19.2637 29.6387 19.5937 29.6387 20.0003C29.6387 20.4075 29.9687 20.7367 30.3757 20.7367H33.2634C33.6703 20.7367 34 20.4069 34 20.0003C34.0001 19.5937 33.6701 19.2637 33.2635 19.2637H33.2636Z" fill="white"/>
<path d="M10.362 20.0004C10.362 19.5935 10.032 19.2638 9.62495 19.2638L6.73707 19.2637C6.32975 19.2637 6 19.5937 6 20.0004C6 20.4076 6.32975 20.7368 6.73707 20.7368H9.62547C10.0321 20.7368 10.3622 20.4076 10.3622 20.0004L10.362 20.0004Z" fill="white"/>
<path d="M28.9853 15.5498C29.1107 15.5498 29.2379 15.5181 29.3533 15.4512L31.8549 14.007C32.2078 13.8036 32.3282 13.3531 32.1246 13.0006C31.9212 12.648 31.4701 12.5273 31.1185 12.7312L28.6162 14.175C28.2644 14.3785 28.143 14.8292 28.3474 15.1815C28.4836 15.4178 28.7304 15.5498 28.9853 15.5498L28.9853 15.5498Z" fill="white"/>
<path d="M10.6475 24.5499L8.14617 25.9934C7.79363 26.1966 7.67261 26.6479 7.87618 26.9999C8.01249 27.2363 8.2604 27.3685 8.5152 27.3685C8.64027 27.3685 8.76686 27.3368 8.88293 27.2702L11.3843 25.8263C11.7368 25.6235 11.8578 25.1721 11.6542 24.8202C11.4505 24.4671 10.9997 24.3461 10.6475 24.5499Z" fill="white"/>
<path d="M8.14616 14.0071L10.6475 15.4509C10.7635 15.5182 10.8901 15.5496 11.0149 15.5496C11.2697 15.5496 11.5173 15.4173 11.6539 15.1812C11.8574 14.8284 11.7367 14.3779 11.3839 14.1748L8.88261 12.731C8.52979 12.5269 8.07933 12.6482 7.87617 13.0003C7.67261 13.3532 7.79363 13.8033 8.14616 14.0071Z" fill="white"/>
<path d="M31.854 25.9937L29.353 24.5493C29.0017 24.3464 28.5503 24.4665 28.3471 24.8189C28.1434 25.1715 28.2641 25.6216 28.6159 25.8251L31.1175 27.2695C31.2336 27.3371 31.3605 27.3682 31.4855 27.3682C31.7397 27.3682 31.988 27.2359 32.1246 26.9995C32.3272 26.6479 32.2068 26.1972 31.8539 25.9937L31.854 25.9937Z" fill="white"/>
<path d="M22.4869 30.261H17.5133C17.1879 30.261 16.9238 30.5251 16.9238 30.8505C16.9238 31.1762 17.188 31.44 17.5133 31.44H22.4869C22.8129 31.44 23.0769 31.1762 23.0769 30.8505C23.0769 30.5248 22.813 30.261 22.4869 30.261Z" fill="white"/>
<path d="M21.8543 32.0527H18.1461C17.8207 32.0527 17.5566 32.3169 17.5566 32.6422C17.5566 32.9679 17.8205 33.2322 18.1461 33.2322H18.2603C18.2541 33.2655 18.25 33.3009 18.25 33.3367C18.25 33.6621 18.5139 33.9262 18.8395 33.9262H21.161C21.4861 33.9262 21.7509 33.662 21.7509 33.3367C21.7509 33.3009 21.7463 33.2655 21.74 33.2322H21.8544C22.1795 33.2322 22.4439 32.9677 22.4439 32.6422C22.4434 32.3168 22.1793 32.0527 21.8542 32.0527H21.8543Z" fill="white"/>
</svg>
