<svg width="39" height="39" viewBox="0 0 39 39" fill="none" xmlns="http://www.w3.org/2000/svg">
<rect width="38.7097" height="38.7112" rx="19.3548" fill="#1A7BA0"/>
<path d="M16.8737 8.00054C19.3243 8.00054 21.5433 8.9943 23.1493 10.6001C24.7553 12.206 25.7489 14.4253 25.7489 16.8757C25.7489 17.802 25.6064 18.6973 25.341 19.5383C25.1104 20.2705 24.787 20.9643 24.3839 21.6037L30.2265 26.9289C30.3793 27.0668 30.4965 27.228 30.579 27.408C30.6605 27.588 30.7046 27.7821 30.7093 27.9892C30.714 28.1974 30.6802 28.3933 30.6071 28.5761C30.533 28.7608 30.4224 28.9277 30.278 29.0721L29.0377 30.3086C28.8999 30.4399 28.7443 30.5402 28.5736 30.6086C28.3918 30.6817 28.1949 30.7155 27.9877 30.7108C27.7815 30.7061 27.5865 30.663 27.4065 30.5805C27.2265 30.498 27.0661 30.3799 26.9274 30.228L21.6022 24.3854C20.9628 24.7885 20.27 25.1129 19.5378 25.3426C18.6959 25.607 17.8016 25.7504 16.8752 25.7504C14.4246 25.7504 12.2056 24.7566 10.5996 23.1508C8.99374 21.5449 8 19.3256 8 16.8752C8 14.4246 8.99376 12.2056 10.5996 10.5996C12.2055 8.99366 14.4248 8 16.8752 8L16.8737 8.00054ZM16.8737 10.2459C15.0437 10.2459 13.3853 10.9884 12.1863 12.1875C10.9863 13.3875 10.2447 15.0449 10.2447 16.8749C10.2447 18.7049 10.9872 20.3633 12.1863 21.5623C13.3863 22.7623 15.0437 23.5039 16.8737 23.5039C18.7037 23.5039 20.3621 22.7614 21.5611 21.5623C22.7611 20.3623 23.5026 18.7049 23.5026 16.8749C23.5026 15.0449 22.7601 13.3865 21.5611 12.1875C20.3611 10.9875 18.7037 10.2459 16.8737 10.2459Z" fill="white"/>
</svg>
