<svg width="35" height="35" viewBox="0 0 35 35" fill="none" xmlns="http://www.w3.org/2000/svg">
<path d="M28.4376 0H6.56239C4.82189 0 3.15277 0.691439 1.9221 1.9221C0.691439 3.15295 0 4.82207 0 6.56239V28.4376C0 30.1781 0.691439 31.8472 1.9221 33.0779C3.15295 34.3086 4.82208 35 6.56239 35H28.4376C30.1781 35 31.8472 34.3086 33.0779 33.0779C34.3086 31.847 35 30.1779 35 28.4376V6.56239C35 4.82189 34.3086 3.15277 33.0779 1.9221C31.8471 0.691439 30.1779 0 28.4376 0ZM30.6251 28.4378C30.6251 29.0179 30.3946 29.5743 29.9844 29.9846C29.5741 30.3948 29.0178 30.6253 28.4376 30.6253H7.47021L20.2344 17.8611V22.4221C20.2344 23.2036 20.6513 23.9258 21.3282 24.3166C22.005 24.7073 22.8388 24.7073 23.5157 24.3166C24.1925 23.9258 24.6094 23.2036 24.6094 22.4221V14.7658C24.6094 13.6054 24.1486 12.4926 23.3281 11.6721C22.5076 10.8516 21.3947 10.3907 20.2344 10.3907H12.5781C11.7966 10.3907 11.0743 10.8077 10.6836 11.4845C10.2928 12.1614 10.2928 12.9952 10.6836 13.672C11.0743 14.3489 11.7966 14.7658 12.5781 14.7658H17.1391L4.37486 27.53V6.56257C4.37486 5.98242 4.6054 5.42606 5.01558 5.01576C5.42592 4.6056 5.98224 4.37505 6.56239 4.37505H28.4376C29.0178 4.37505 29.5741 4.60558 29.9844 5.01576C30.3946 5.4261 30.6251 5.98242 30.6251 6.56257V28.4378Z" fill="#6C3C74"/>
</svg>
