<svg width="37" height="37" viewBox="0 0 37 37" fill="none" xmlns="http://www.w3.org/2000/svg">
<rect width="36.993" height="37" rx="18.4965" fill="#6C3C74"/>
<path fill-rule="evenodd" clip-rule="evenodd" d="M21.5313 17.4827C21.8249 17.7398 21.9929 18.1106 21.9929 18.5C21.9929 18.8895 21.8249 19.2611 21.5313 19.5174C19.4236 21.3612 14.9401 25.2846 12.2191 27.6654C11.8195 28.015 11.2535 28.0982 10.7699 27.8793C10.2871 27.6603 9.97656 27.1784 9.97656 26.6481V10.3519C9.97656 9.8216 10.2871 9.33966 10.7699 9.12074C11.2527 8.90183 11.8195 8.98498 12.2191 9.33455C14.9394 11.7154 19.4238 15.6388 21.5313 17.4826V17.4827Z" fill="white"/>
<path fill-rule="evenodd" clip-rule="evenodd" d="M31.5313 17.4827C31.8249 17.7398 31.9929 18.1106 31.9929 18.5C31.9929 18.8895 31.8249 19.2611 31.5313 19.5174C29.4236 21.3612 24.9401 25.2846 22.2191 27.6654C21.8195 28.015 21.2535 28.0982 20.7699 27.8793C20.2871 27.6603 19.9766 27.1784 19.9766 26.6481V10.3519C19.9766 9.8216 20.2871 9.33966 20.7699 9.12074C21.2527 8.90183 21.8195 8.98498 22.2191 9.33455C24.9394 11.7154 29.4238 15.6388 31.5313 17.4826V17.4827Z" fill="white"/>
</svg>
