<svg width="42" height="42" viewBox="0 0 42 42" fill="none" xmlns="http://www.w3.org/2000/svg">
<rect x="0.5" y="0.5" width="41" height="41" rx="20.5" fill="#6C3C74"/>
<rect x="0.5" y="0.5" width="41" height="41" rx="20.5" stroke="white"/>
<path d="M20.9998 14.0942C17.2999 14.0942 14.3301 17.0936 14.3301 20.794C14.3301 22.5626 15.5328 24.351 17.045 26.3157C18.5576 28.281 16.4623 29.9471 20.9995 29.9471C25.5378 29.9471 23.4429 28.2811 24.955 26.3157C26.4676 24.351 27.6707 22.5627 27.6707 20.794C27.6709 17.0936 24.7014 14.0942 20.9998 14.0942Z" fill="white"/>
<path d="M28.0001 8.87538C27.6476 8.67223 27.1971 8.79234 26.994 9.14506L25.5502 11.647C25.3467 11.9995 25.4668 12.4503 25.8195 12.6532C25.9353 12.7204 26.0622 12.7518 26.1873 12.7518C26.4418 12.7518 26.69 12.6198 26.8269 12.3835L28.2708 9.88153C28.4734 9.52961 28.3527 9.07885 28.0001 8.87538Z" fill="white"/>
<path d="M21.0007 11.3625C21.408 11.3625 21.7374 11.0325 21.7374 10.6255V7.73707C21.7374 7.32985 21.4076 7 21.0007 7C20.5938 7 20.2637 7.33004 20.2637 7.73707V10.6249C20.2637 11.0323 20.5938 11.3623 21.0007 11.3623V11.3625Z" fill="white"/>
<path d="M15.8129 12.7519C15.9376 12.7519 16.0648 12.7202 16.1806 12.6535C16.5328 12.4501 16.6539 11.999 16.4503 11.6471L15.0058 9.14545C14.8027 8.79291 14.3519 8.6722 13.9994 8.87577C13.6472 9.07923 13.5261 9.53029 13.7297 9.88221L15.1739 12.3838C15.3104 12.6202 15.5581 12.7519 15.8129 12.7519Z" fill="white"/>
<path d="M34.2636 20.2637H31.3757C30.9682 20.2637 30.6387 20.5937 30.6387 21.0003C30.6387 21.4075 30.9687 21.7367 31.3757 21.7367H34.2634C34.6703 21.7367 35 21.4069 35 21.0003C35.0001 20.5937 34.6701 20.2637 34.2635 20.2637H34.2636Z" fill="white"/>
<path d="M11.362 21.0004C11.362 20.5935 11.032 20.2638 10.6249 20.2638L7.73707 20.2637C7.32975 20.2637 7 20.5937 7 21.0004C7 21.4076 7.32975 21.7368 7.73707 21.7368H10.6255C11.0321 21.7368 11.3622 21.4076 11.3622 21.0004L11.362 21.0004Z" fill="white"/>
<path d="M29.9853 16.5498C30.1107 16.5498 30.2379 16.5181 30.3533 16.4512L32.8549 15.007C33.2078 14.8036 33.3282 14.3531 33.1246 14.0006C32.9212 13.648 32.4701 13.5273 32.1185 13.7312L29.6162 15.175C29.2644 15.3785 29.143 15.8292 29.3474 16.1815C29.4836 16.4178 29.7304 16.5498 29.9853 16.5498L29.9853 16.5498Z" fill="white"/>
<path d="M11.6475 25.5499L9.14617 26.9934C8.79363 27.1966 8.67261 27.6479 8.87618 27.9999C9.01249 28.2363 9.2604 28.3685 9.5152 28.3685C9.64027 28.3685 9.76686 28.3368 9.88293 28.2702L12.3843 26.8263C12.7368 26.6235 12.8578 26.1721 12.6542 25.8202C12.4505 25.4671 11.9997 25.3461 11.6475 25.5499Z" fill="white"/>
<path d="M9.14616 15.0071L11.6475 16.4509C11.7635 16.5182 11.8901 16.5496 12.0149 16.5496C12.2697 16.5496 12.5173 16.4173 12.6539 16.1812C12.8574 15.8284 12.7367 15.3779 12.3839 15.1748L9.88261 13.731C9.52979 13.5269 9.07933 13.6482 8.87617 14.0003C8.67261 14.3532 8.79363 14.8033 9.14616 15.0071Z" fill="white"/>
<path d="M32.854 26.9937L30.353 25.5493C30.0017 25.3464 29.5503 25.4665 29.3471 25.8189C29.1434 26.1715 29.2641 26.6216 29.6159 26.8251L32.1175 28.2695C32.2336 28.3371 32.3605 28.3682 32.4855 28.3682C32.7397 28.3682 32.988 28.2359 33.1246 27.9995C33.3272 27.6479 33.2068 27.1972 32.8539 26.9937L32.854 26.9937Z" fill="white"/>
<path d="M23.4869 31.2611H18.5133C18.1879 31.2611 17.9238 31.5252 17.9238 31.8506C17.9238 32.1763 18.188 32.4401 18.5133 32.4401H23.4869C23.8129 32.4401 24.0769 32.1763 24.0769 31.8506C24.0769 31.5249 23.813 31.2611 23.4869 31.2611Z" fill="white"/>
<path d="M22.8543 33.0526H19.1461C18.8207 33.0526 18.5566 33.3167 18.5566 33.6421C18.5566 33.9678 18.8205 34.232 19.1461 34.232H19.2603C19.2541 34.2653 19.25 34.3008 19.25 34.3365C19.25 34.6619 19.5139 34.926 19.8395 34.926H22.161C22.4861 34.926 22.7509 34.6619 22.7509 34.3365C22.7509 34.3008 22.7463 34.2653 22.74 34.232H22.8544C23.1795 34.232 23.4439 33.9676 23.4439 33.6421C23.4434 33.3167 23.1793 33.0526 22.8542 33.0526H22.8543Z" fill="white"/>
</svg>
