<svg width="40" height="40" viewBox="0 0 40 40" fill="none" xmlns="http://www.w3.org/2000/svg">
<rect width="40" height="40" rx="20" fill="#6C3C74"/>
<path d="M20.9344 8.60812L24.0785 15.277L31.1081 16.3469V16.3458C31.5005 16.4059 31.8267 16.693 31.9492 17.0878C32.0716 17.4826 31.9687 17.916 31.6847 18.2053L26.5973 23.3958L27.7981 30.725H27.7992C27.8664 31.1346 27.7049 31.5476 27.3852 31.7915C27.0644 32.0354 26.6385 32.0683 26.2884 31.8743L20 28.4139L13.7116 31.8743C13.3615 32.0672 12.9356 32.0354 12.6148 31.7915C12.295 31.5476 12.1336 31.1346 12.2008 30.725L13.4016 23.3958L8.3142 18.2053H8.31528C8.03133 17.916 7.92837 17.4826 8.05082 17.0878C8.17327 16.6929 8.49952 16.4059 8.89187 16.3458L15.9227 15.277L19.0668 8.60812H19.0657C19.2413 8.23599 19.6032 8 19.9999 8C20.3966 8 20.7588 8.23598 20.9344 8.60812Z" fill="white"/>
</svg>
