<svg width="118" height="118" viewBox="0 0 118 118" fill="none" xmlns="http://www.w3.org/2000/svg">
<path id="Vector" d="M117.46 113.299L61.9813 34.1195L61.8855 22.0165H85.0299C86.1754 22.0165 87.2213 21.3621 87.7201 20.3303C88.219 19.2981 88.0829 18.0718 87.372 17.1743L82.9834 11.6328L87.5378 4.61418C88.1339 3.69571 88.1801 2.52441 87.6574 1.56124C87.1333 0.599496 86.1278 0.00048622 85.0313 0.00048622L58.7452 0C57.9493 0 57.1859 0.31799 56.6243 0.884439C56.0642 1.44895 55.7521 2.21517 55.7579 3.01167L56.0059 34.1435L0.53972 113.299C-0.0996577 114.212 -0.175511 115.403 0.336481 116.393C0.851872 117.38 1.87347 118 2.98787 118H115.013C116.127 118 117.149 117.38 117.663 116.391C118.176 115.404 118.099 114.21 117.46 113.299L117.46 113.299ZM59.0002 40.2784L79.9576 70.1891L73.4466 75.4947L63.5646 67.8425C62.3369 66.891 60.5895 67.0388 59.5407 68.18L46.8146 81.9752L37.2968 71.2507L59.0002 40.2784ZM79.5294 5.97504L76.8022 10.1798C76.1045 11.2568 76.1706 12.6562 76.9666 13.6617L78.8517 16.0427L61.8351 16.0422L61.7544 5.97505L79.5294 5.97504ZM8.72704 112.025L33.7746 76.2808L44.5395 88.411C45.0996 89.0426 45.9018 89.4072 46.7455 89.416H46.7752C47.61 89.416 48.4064 89.0679 48.971 88.4528L62.0767 74.2455L71.6674 81.672C72.7667 82.5219 74.3051 82.504 75.3835 81.6273L83.3984 75.0968L109.273 112.027L8.72704 112.025Z" fill="url(#paint0_linear_8262_2409)"/>
<defs>
<linearGradient id="paint0_linear_8262_2409" x1="-3.89651e-07" y1="45.725" x2="118" y2="45.725" gradientUnits="userSpaceOnUse">
<stop stop-color="#51B1CC"/>
<stop offset="0.5" stop-color="#6C3C74"/>
<stop offset="1" stop-color="#D42D50"/>
</linearGradient>
</defs>
</svg>
