<svg width="93" height="115" viewBox="0 0 93 115" fill="none" xmlns="http://www.w3.org/2000/svg">
<g id="Union">
<mask id="path-1-inside-1_8262_2399" fill="white">
<path fill-rule="evenodd" clip-rule="evenodd" d="M27.8637 23.8836H65.026C65.7454 23.8836 66.4381 23.769 67.0869 23.5571C69.7443 22.6916 71.6657 20.1933 71.6657 17.2477V13.2663H78.2997C81.9627 13.2663 84.9338 16.2374 84.9338 19.9003V99.5294C84.9338 103.192 81.9627 106.163 78.2997 106.163H14.5965C10.9336 106.163 7.96248 103.192 7.96248 99.5294V19.9003C7.96248 16.2374 10.9336 13.2663 14.5965 13.2663H21.2296V17.2496C21.2296 20.9125 24.2008 23.8836 27.8637 23.8836ZM21.363 5.30444C21.979 2.27833 24.6561 0 27.8637 0H65.026C68.2336 0 70.9107 2.27833 71.5267 5.30444H78.2942C86.3616 5.30444 92.8907 11.834 92.8907 19.901V99.53C92.8907 107.597 86.3612 114.127 78.2942 114.127L78.2997 114.132H14.5965C6.52915 114.132 0 107.602 0 99.5353V19.901C0 11.8336 6.52958 5.30444 14.5965 5.30444H21.363ZM63.6967 15.9199H29.1935V9.28589C29.1935 9.26466 29.1933 9.24347 29.193 9.22231V7.95781H63.6967V15.9199ZM72.9889 92.8975H51.7524C49.5775 92.8975 47.7709 91.0909 47.7709 88.9161C47.7709 86.7412 49.5775 84.9346 51.7524 84.9346H72.9889C75.1637 84.9346 76.9704 86.7412 76.9704 88.9161C76.9704 91.0909 75.1637 92.8975 72.9889 92.8975ZM51.7524 69.0088H72.9889C75.1637 69.0088 76.9704 67.2021 76.9704 65.0273C76.9704 62.8525 75.1637 61.0459 72.9889 61.0459H51.7524C49.5775 61.0459 47.7709 62.8525 47.7709 65.0273C47.7709 67.2021 49.5775 69.0088 51.7524 69.0088ZM72.9889 45.1201H51.7524C49.5775 45.1201 47.7709 43.3135 47.7709 41.1387C47.7709 38.9639 49.5775 37.1572 51.7524 37.1572H72.9889C75.1637 37.1572 76.9704 38.9639 76.9704 41.1387C76.9704 43.3135 75.1637 45.1201 72.9889 45.1201ZM22.3999 49.2613C23.1961 50.0576 24.2014 50.4309 25.2117 50.4309L25.2168 50.4258C26.222 50.4258 27.2324 50.0525 28.0287 49.2562L38.6442 38.6407C40.182 37.0978 40.182 34.5496 38.6442 33.0118C37.1013 31.4741 34.5532 31.4741 33.0154 33.0118L25.2117 40.8155L22.7184 38.3221C21.1755 36.7844 18.6273 36.7844 17.0896 38.3221C15.5518 39.865 15.5518 42.4132 17.0896 43.951L22.3999 49.2613ZM25.2117 74.3196C24.2014 74.3196 23.1961 73.9464 22.3999 73.15L17.0896 67.8397C15.5518 66.3019 15.5518 63.7538 17.0896 62.2109C18.6273 60.6731 21.1755 60.6731 22.7184 62.2109L25.2117 64.7042L33.0154 56.9006C34.5532 55.3628 37.1013 55.3628 38.6442 56.9006C40.182 58.4384 40.182 60.9865 38.6442 62.5294L28.0287 73.1449C27.2324 73.9412 26.222 74.3145 25.2168 74.3145L25.2117 74.3196ZM22.3999 97.0387C23.1961 97.835 24.2014 98.2082 25.2117 98.2082L25.2168 98.2031C26.222 98.2031 27.2324 97.8298 28.0287 97.0335L38.6442 86.418C40.182 84.8752 40.182 82.327 38.6442 80.7892C37.1013 79.2514 34.5532 79.2514 33.0154 80.7892L25.2117 88.5929L22.7184 86.0995C21.1755 84.5617 18.6273 84.5617 17.0896 86.0995C15.5518 87.6424 15.5518 90.1905 17.0896 91.7283L22.3999 97.0387Z"/>
</mask>
<path fill-rule="evenodd" clip-rule="evenodd" d="M27.8637 23.8836H65.026C65.7454 23.8836 66.4381 23.769 67.0869 23.5571C69.7443 22.6916 71.6657 20.1933 71.6657 17.2477V13.2663H78.2997C81.9627 13.2663 84.9338 16.2374 84.9338 19.9003V99.5294C84.9338 103.192 81.9627 106.163 78.2997 106.163H14.5965C10.9336 106.163 7.96248 103.192 7.96248 99.5294V19.9003C7.96248 16.2374 10.9336 13.2663 14.5965 13.2663H21.2296V17.2496C21.2296 20.9125 24.2008 23.8836 27.8637 23.8836ZM21.363 5.30444C21.979 2.27833 24.6561 0 27.8637 0H65.026C68.2336 0 70.9107 2.27833 71.5267 5.30444H78.2942C86.3616 5.30444 92.8907 11.834 92.8907 19.901V99.53C92.8907 107.597 86.3612 114.127 78.2942 114.127L78.2997 114.132H14.5965C6.52915 114.132 0 107.602 0 99.5353V19.901C0 11.8336 6.52958 5.30444 14.5965 5.30444H21.363ZM63.6967 15.9199H29.1935V9.28589C29.1935 9.26466 29.1933 9.24347 29.193 9.22231V7.95781H63.6967V15.9199ZM72.9889 92.8975H51.7524C49.5775 92.8975 47.7709 91.0909 47.7709 88.9161C47.7709 86.7412 49.5775 84.9346 51.7524 84.9346H72.9889C75.1637 84.9346 76.9704 86.7412 76.9704 88.9161C76.9704 91.0909 75.1637 92.8975 72.9889 92.8975ZM51.7524 69.0088H72.9889C75.1637 69.0088 76.9704 67.2021 76.9704 65.0273C76.9704 62.8525 75.1637 61.0459 72.9889 61.0459H51.7524C49.5775 61.0459 47.7709 62.8525 47.7709 65.0273C47.7709 67.2021 49.5775 69.0088 51.7524 69.0088ZM72.9889 45.1201H51.7524C49.5775 45.1201 47.7709 43.3135 47.7709 41.1387C47.7709 38.9639 49.5775 37.1572 51.7524 37.1572H72.9889C75.1637 37.1572 76.9704 38.9639 76.9704 41.1387C76.9704 43.3135 75.1637 45.1201 72.9889 45.1201ZM22.3999 49.2613C23.1961 50.0576 24.2014 50.4309 25.2117 50.4309L25.2168 50.4258C26.222 50.4258 27.2324 50.0525 28.0287 49.2562L38.6442 38.6407C40.182 37.0978 40.182 34.5496 38.6442 33.0118C37.1013 31.4741 34.5532 31.4741 33.0154 33.0118L25.2117 40.8155L22.7184 38.3221C21.1755 36.7844 18.6273 36.7844 17.0896 38.3221C15.5518 39.865 15.5518 42.4132 17.0896 43.951L22.3999 49.2613ZM25.2117 74.3196C24.2014 74.3196 23.1961 73.9464 22.3999 73.15L17.0896 67.8397C15.5518 66.3019 15.5518 63.7538 17.0896 62.2109C18.6273 60.6731 21.1755 60.6731 22.7184 62.2109L25.2117 64.7042L33.0154 56.9006C34.5532 55.3628 37.1013 55.3628 38.6442 56.9006C40.182 58.4384 40.182 60.9865 38.6442 62.5294L28.0287 73.1449C27.2324 73.9412 26.222 74.3145 25.2168 74.3145L25.2117 74.3196ZM22.3999 97.0387C23.1961 97.835 24.2014 98.2082 25.2117 98.2082L25.2168 98.2031C26.222 98.2031 27.2324 97.8298 28.0287 97.0335L38.6442 86.418C40.182 84.8752 40.182 82.327 38.6442 80.7892C37.1013 79.2514 34.5532 79.2514 33.0154 80.7892L25.2117 88.5929L22.7184 86.0995C21.1755 84.5617 18.6273 84.5617 17.0896 86.0995C15.5518 87.6424 15.5518 90.1905 17.0896 91.7283L22.3999 97.0387Z" fill="url(#paint0_linear_8262_2399)"/>
<path d="M67.0869 23.5571L66.6224 22.1308L66.6211 22.1312L67.0869 23.5571ZM71.6657 13.2663V11.7663H70.1657V13.2663H71.6657ZM21.2296 13.2663H22.7296V11.7663H21.2296V13.2663ZM21.363 5.30444V6.80444H22.5884L22.8329 5.60366L21.363 5.30444ZM71.5267 5.30444L70.0568 5.60366L70.3013 6.80444H71.5267V5.30444ZM78.2942 114.127V112.627H74.577L77.2532 115.206L78.2942 114.127ZM78.2997 114.132V115.632H82.0169L79.3408 113.052L78.2997 114.132ZM29.1935 15.9199H27.6935V17.4199H29.1935V15.9199ZM63.6967 15.9199V17.4199H65.1967V15.9199H63.6967ZM29.193 9.22231H27.693V9.23449L27.6932 9.24665L29.193 9.22231ZM29.193 7.95781V6.45781H27.693V7.95781H29.193ZM63.6967 7.95781H65.1967V6.45781H63.6967V7.95781ZM25.2117 50.4309V51.9309H25.8334L26.2728 51.4911L25.2117 50.4309ZM22.3999 49.2613L23.4605 48.2006L23.4605 48.2006L22.3999 49.2613ZM25.2168 50.4258V48.9258H24.5952L24.1558 49.3655L25.2168 50.4258ZM28.0287 49.2562L29.0893 50.3168H29.0893L28.0287 49.2562ZM38.6442 38.6407L39.7048 39.7013L39.7066 39.6996L38.6442 38.6407ZM38.6442 33.0118L39.7048 31.9512L39.7031 31.9494L38.6442 33.0118ZM33.0154 33.0118L34.076 34.0725V34.0725L33.0154 33.0118ZM25.2117 40.8155L24.1511 41.8762L25.2117 42.9368L26.2724 41.8762L25.2117 40.8155ZM22.7184 38.3221L23.779 37.2615L23.7773 37.2597L22.7184 38.3221ZM17.0896 38.3221L16.0289 37.2615L16.0271 37.2632L17.0896 38.3221ZM17.0896 43.951L18.1502 42.8903L17.0896 43.951ZM22.3999 73.15L23.4605 72.0894L23.4605 72.0894L22.3999 73.15ZM25.2117 74.3196V75.8196H25.833L26.2724 75.3803L25.2117 74.3196ZM17.0896 67.8397L18.1502 66.7791L17.0896 67.8397ZM17.0896 62.2109L16.0289 61.1502L16.0271 61.152L17.0896 62.2109ZM22.7184 62.2109L23.779 61.1502L23.7773 61.1485L22.7184 62.2109ZM25.2117 64.7042L24.1511 65.7649L25.2117 66.8256L26.2724 65.7649L25.2117 64.7042ZM33.0154 56.9006L34.076 57.9613V57.9613L33.0154 56.9006ZM38.6442 56.9006L39.7048 55.8399L39.7031 55.8382L38.6442 56.9006ZM38.6442 62.5294L39.7048 63.5901L39.7066 63.5883L38.6442 62.5294ZM28.0287 73.1449L29.0893 74.2056H29.0893L28.0287 73.1449ZM25.2168 74.3145V72.8145H24.5955L24.1562 73.2539L25.2168 74.3145ZM25.2117 98.2082V99.7082H25.833L26.2724 99.2689L25.2117 98.2082ZM22.3999 97.0387L23.4605 95.978L23.4605 95.978L22.3999 97.0387ZM25.2168 98.2031V96.7031H24.5955L24.1562 97.1425L25.2168 98.2031ZM28.0287 97.0335L29.0893 98.0942H29.0893L28.0287 97.0335ZM38.6442 86.418L39.7048 87.4787L39.7066 87.477L38.6442 86.418ZM38.6442 80.7892L39.7048 79.7286L39.7031 79.7268L38.6442 80.7892ZM33.0154 80.7892L31.9547 79.7286H31.9547L33.0154 80.7892ZM25.2117 88.5929L24.1511 89.6535L25.2117 90.7142L26.2724 89.6535L25.2117 88.5929ZM22.7184 86.0995L23.779 85.0389L23.7773 85.0371L22.7184 86.0995ZM17.0896 86.0995L16.0289 85.0389L16.0271 85.0406L17.0896 86.0995ZM17.0896 91.7283L18.1502 90.6677L17.0896 91.7283ZM65.026 22.3836H27.8637V25.3836H65.026V22.3836ZM66.6211 22.1312C66.1208 22.2947 65.5852 22.3836 65.026 22.3836V25.3836C65.9056 25.3836 66.7554 25.2434 67.5527 24.9829L66.6211 22.1312ZM70.1657 17.2477C70.1657 19.5247 68.6807 21.4604 66.6224 22.1308L67.5514 24.9833C70.8079 23.9227 73.1657 20.862 73.1657 17.2477H70.1657ZM70.1657 13.2663V17.2477H73.1657V13.2663H70.1657ZM78.2997 11.7663H71.6657V14.7663H78.2997V11.7663ZM86.4338 19.9003C86.4338 15.409 82.7911 11.7663 78.2997 11.7663V14.7663C81.1342 14.7663 83.4338 17.0658 83.4338 19.9003H86.4338ZM86.4338 99.5294V19.9003H83.4338V99.5294H86.4338ZM78.2997 107.663C82.7911 107.663 86.4338 104.021 86.4338 99.5294H83.4338C83.4338 102.364 81.1342 104.663 78.2997 104.663V107.663ZM14.5965 107.663H78.2997V104.663H14.5965V107.663ZM6.46248 99.5294C6.46248 104.021 10.1052 107.663 14.5965 107.663V104.663C11.762 104.663 9.46248 102.364 9.46248 99.5294H6.46248ZM6.46248 19.9003V99.5294H9.46248V19.9003H6.46248ZM14.5965 11.7663C10.1052 11.7663 6.46248 15.409 6.46248 19.9003H9.46248C9.46248 17.0658 11.762 14.7663 14.5965 14.7663V11.7663ZM21.2296 11.7663H14.5965V14.7663H21.2296V11.7663ZM22.7296 17.2496V13.2663H19.7296V17.2496H22.7296ZM27.8637 22.3836C25.0292 22.3836 22.7296 20.0841 22.7296 17.2496H19.7296C19.7296 21.7409 23.3723 25.3836 27.8637 25.3836V22.3836ZM27.8637 -1.5C23.9288 -1.5 20.6486 1.29441 19.8932 5.00522L22.8329 5.60366C23.3095 3.26225 25.3834 1.5 27.8637 1.5V-1.5ZM65.026 -1.5H27.8637V1.5H65.026V-1.5ZM72.9966 5.00522C72.2411 1.29441 68.9609 -1.5 65.026 -1.5V1.5C67.5063 1.5 69.5802 3.26225 70.0568 5.60366L72.9966 5.00522ZM78.2942 3.80444H71.5267V6.80444H78.2942V3.80444ZM94.3907 19.901C94.3907 11.0056 87.19 3.80444 78.2942 3.80444V6.80444C85.5331 6.80444 91.3907 12.6624 91.3907 19.901H94.3907ZM94.3907 99.53V19.901H91.3907V99.53H94.3907ZM78.2942 115.627C87.1896 115.627 94.3907 108.426 94.3907 99.53H91.3907C91.3907 106.769 85.5328 112.627 78.2942 112.627V115.627ZM79.3408 113.052L79.3353 113.047L77.2532 115.206L77.2587 115.212L79.3408 113.052ZM14.5965 115.632H78.2997V112.632H14.5965V115.632ZM-1.5 99.5353C-1.5 108.431 5.7007 115.632 14.5965 115.632V112.632C7.35761 112.632 1.5 106.774 1.5 99.5353H-1.5ZM-1.5 19.901V99.5353H1.5V19.901H-1.5ZM14.5965 3.80444C5.70118 3.80444 -1.5 11.0051 -1.5 19.901H1.5C1.5 12.662 7.35798 6.80444 14.5965 6.80444V3.80444ZM21.363 3.80444H14.5965V6.80444H21.363V3.80444ZM29.1935 17.4199H63.6967V14.4199H29.1935V17.4199ZM27.6935 9.28589V15.9199H30.6935V9.28589H27.6935ZM27.6932 9.24665C27.6934 9.25967 27.6935 9.27275 27.6935 9.28589H30.6935C30.6935 9.25658 30.6932 9.22727 30.6928 9.19798L27.6932 9.24665ZM27.693 7.95781V9.22231H30.693V7.95781H27.693ZM63.6967 6.45781H29.193V9.45781H63.6967V6.45781ZM65.1967 15.9199V7.95781H62.1967V15.9199H65.1967ZM51.7524 94.3975H72.9889V91.3975H51.7524V94.3975ZM46.2709 88.9161C46.2709 91.9193 48.7491 94.3975 51.7524 94.3975V91.3975C50.406 91.3975 49.2709 90.2625 49.2709 88.9161H46.2709ZM51.7524 83.4346C48.7491 83.4346 46.2709 85.9128 46.2709 88.9161H49.2709C49.2709 87.5697 50.406 86.4346 51.7524 86.4346V83.4346ZM72.9889 83.4346H51.7524V86.4346H72.9889V83.4346ZM78.4704 88.9161C78.4704 85.9128 75.9922 83.4346 72.9889 83.4346V86.4346C74.3353 86.4346 75.4704 87.5697 75.4704 88.9161H78.4704ZM72.9889 94.3975C75.9921 94.3975 78.4704 91.9193 78.4704 88.9161H75.4704C75.4704 90.2625 74.3353 91.3975 72.9889 91.3975V94.3975ZM72.9889 67.5088H51.7524V70.5088H72.9889V67.5088ZM75.4704 65.0273C75.4704 66.3737 74.3353 67.5088 72.9889 67.5088V70.5088C75.9922 70.5088 78.4704 68.0306 78.4704 65.0273H75.4704ZM72.9889 62.5459C74.3353 62.5459 75.4704 63.6809 75.4704 65.0273H78.4704C78.4704 62.0241 75.9921 59.5459 72.9889 59.5459V62.5459ZM51.7524 62.5459H72.9889V59.5459H51.7524V62.5459ZM49.2709 65.0273C49.2709 63.6809 50.406 62.5459 51.7524 62.5459V59.5459C48.7491 59.5459 46.2709 62.0241 46.2709 65.0273H49.2709ZM51.7524 67.5088C50.406 67.5088 49.2709 66.3737 49.2709 65.0273H46.2709C46.2709 68.0306 48.7491 70.5088 51.7524 70.5088V67.5088ZM51.7524 46.6201H72.9889V43.6201H51.7524V46.6201ZM46.2709 41.1387C46.2709 44.1419 48.7491 46.6201 51.7524 46.6201V43.6201C50.406 43.6201 49.2709 42.4851 49.2709 41.1387H46.2709ZM51.7524 35.6572C48.7491 35.6572 46.2709 38.1354 46.2709 41.1387H49.2709C49.2709 39.7923 50.406 38.6572 51.7524 38.6572V35.6572ZM72.9889 35.6572H51.7524V38.6572H72.9889V35.6572ZM78.4704 41.1387C78.4704 38.1354 75.9921 35.6572 72.9889 35.6572V38.6572C74.3353 38.6572 75.4704 39.7923 75.4704 41.1387H78.4704ZM72.9889 46.6201C75.9922 46.6201 78.4704 44.1419 78.4704 41.1387H75.4704C75.4704 42.4851 74.3353 43.6201 72.9889 43.6201V46.6201ZM25.2117 48.9309C24.5805 48.9309 23.9625 48.7026 23.4605 48.2006L21.3392 50.3219C22.4298 51.4126 23.8224 51.9309 25.2117 51.9309V48.9309ZM24.1558 49.3655L24.1507 49.3706L26.2728 51.4911L26.2779 51.486L24.1558 49.3655ZM26.968 48.1955C26.4667 48.6968 25.844 48.9258 25.2168 48.9258V51.9258C26.6001 51.9258 27.9981 51.4081 29.0893 50.3168L26.968 48.1955ZM37.5835 37.58L26.968 48.1955L29.0893 50.3168L39.7048 39.7013L37.5835 37.58ZM37.5835 34.0725C38.5345 35.0236 38.5371 36.6233 37.5818 37.5818L39.7066 39.6996C41.8269 37.5723 41.8294 34.0757 39.7048 31.9512L37.5835 34.0725ZM34.076 34.0725C35.0271 33.1215 36.6268 33.1189 37.5853 34.0743L39.7031 31.9494C37.5758 29.8292 34.0792 29.8266 31.9547 31.9512L34.076 34.0725ZM26.2724 41.8762L34.076 34.0725L31.9547 31.9512L24.1511 39.7548L26.2724 41.8762ZM21.6577 39.3828L24.1511 41.8762L26.2724 39.7548L23.779 37.2615L21.6577 39.3828ZM18.1502 39.3828C19.1013 38.4318 20.701 38.4292 21.6595 39.3846L23.7773 37.2597C21.65 35.1395 18.1534 35.1369 16.0289 37.2615L18.1502 39.3828ZM18.1502 42.8903C17.1992 41.9393 17.1967 40.3395 18.152 39.3811L16.0271 37.2632C13.9069 39.3905 13.9043 42.8871 16.0289 45.0116L18.1502 42.8903ZM23.4605 48.2006L18.1502 42.8903L16.0289 45.0116L21.3392 50.3219L23.4605 48.2006ZM21.3392 74.2107C22.4298 75.3013 23.8224 75.8196 25.2117 75.8196V72.8196C24.5805 72.8196 23.9625 72.5914 23.4605 72.0894L21.3392 74.2107ZM16.0289 68.9004L21.3392 74.2107L23.4605 72.0894L18.1502 66.7791L16.0289 68.9004ZM16.0271 61.152C13.9069 63.2793 13.9043 66.7758 16.0289 68.9004L18.1502 66.7791C17.1992 65.828 17.1967 64.2283 18.152 63.2698L16.0271 61.152ZM23.7773 61.1485C21.65 59.0282 18.1534 59.0257 16.0289 61.1502L18.1502 63.2716C19.1013 62.3205 20.701 62.318 21.6595 63.2733L23.7773 61.1485ZM26.2724 63.6436L23.779 61.1502L21.6577 63.2716L24.1511 65.7649L26.2724 63.6436ZM31.9547 55.8399L24.1511 63.6436L26.2724 65.7649L34.076 57.9613L31.9547 55.8399ZM39.7031 55.8382C37.5758 53.7179 34.0792 53.7154 31.9547 55.8399L34.076 57.9613C35.0271 57.0102 36.6268 57.0077 37.5853 57.963L39.7031 55.8382ZM39.7066 63.5883C41.8269 61.461 41.8294 57.9645 39.7048 55.8399L37.5835 57.9613C38.5345 58.9123 38.5371 60.512 37.5818 61.4705L39.7066 63.5883ZM29.0893 74.2056L39.7048 63.5901L37.5835 61.4688L26.968 72.0843L29.0893 74.2056ZM25.2168 75.8145C26.6001 75.8145 27.9981 75.2969 29.0893 74.2056L26.968 72.0843C26.4667 72.5856 25.844 72.8145 25.2168 72.8145V75.8145ZM26.2724 75.3803L26.2775 75.3752L24.1562 73.2539L24.1511 73.2589L26.2724 75.3803ZM25.2117 96.7082C24.5805 96.7082 23.9625 96.48 23.4605 95.978L21.3392 98.0993C22.4298 99.19 23.8224 99.7082 25.2117 99.7082V96.7082ZM24.1562 97.1425L24.1511 97.1476L26.2724 99.2689L26.2775 99.2638L24.1562 97.1425ZM26.968 95.9729C26.4667 96.4742 25.844 96.7031 25.2168 96.7031V99.7031C26.6001 99.7031 27.9981 99.1855 29.0893 98.0942L26.968 95.9729ZM37.5835 85.3574L26.968 95.9729L29.0893 98.0942L39.7048 87.4787L37.5835 85.3574ZM37.5835 81.8499C38.5345 82.8009 38.5371 84.4007 37.5818 85.3591L39.7066 87.477C41.8269 85.3496 41.8294 81.8531 39.7048 79.7286L37.5835 81.8499ZM34.076 81.8499C35.0271 80.8988 36.6268 80.8963 37.5853 81.8516L39.7031 79.7268C37.5758 77.6065 34.0792 77.604 31.9547 79.7286L34.076 81.8499ZM26.2724 89.6535L34.076 81.8499L31.9547 79.7286L24.1511 87.5322L26.2724 89.6535ZM21.6577 87.1602L24.1511 89.6535L26.2724 87.5322L23.779 85.0389L21.6577 87.1602ZM18.1502 87.1602C19.1013 86.2091 20.701 86.2066 21.6595 87.1619L23.7773 85.0371C21.65 82.9168 18.1534 82.9143 16.0289 85.0389L18.1502 87.1602ZM18.1502 90.6677C17.1992 89.7166 17.1967 88.1169 18.152 87.1584L16.0271 85.0406C13.9069 87.1679 13.9043 90.6645 16.0289 92.789L18.1502 90.6677ZM23.4605 95.978L18.1502 90.6677L16.0289 92.789L21.3392 98.0993L23.4605 95.978Z" fill="#F5F5F5" mask="url(#path-1-inside-1_8262_2399)"/>
</g>
<defs>
<linearGradient id="paint0_linear_8262_2399" x1="-3.06737e-07" y1="44.2261" x2="92.8907" y2="44.2261" gradientUnits="userSpaceOnUse">
<stop stop-color="#51B1CC"/>
<stop offset="0.5" stop-color="#6C3C74"/>
<stop offset="1" stop-color="#D42D50"/>
</linearGradient>
</defs>
</svg>
