<svg width="115" height="112" viewBox="0 0 115 112" fill="none" xmlns="http://www.w3.org/2000/svg">
<g id="Group 29">
<path id="Vector" d="M51.6672 2.50074C62.1602 2.59322 70.591 11.1742 70.4993 21.6674C70.4075 32.1599 61.8261 40.5909 51.3328 40.4993C40.8398 40.4068 32.409 31.8258 32.5007 21.3326C32.5932 10.8404 41.1742 2.409 51.6672 2.50074Z" stroke="url(#paint0_linear_8226_1778)" stroke-width="5"/>
<path id="Vector_2" d="M31.8867 108.86V81.1525C31.8867 80.1629 30.6323 79.8555 30.2152 80.7528C27.642 86.2886 24.8893 93.9403 22.5097 101.597C20.9067 106.755 15.5401 109.833 10.3329 108.398V108.398C5.16813 106.975 2.09449 101.645 3.62203 96.5099C8.99259 78.4566 18.2831 53.7554 31.8867 49.9968C35.499 48.4688 47.1507 47.8761 56.8428 48.2121C65.753 48.521 75.0416 47.8751 80.0003 40.4657C85.3372 32.4912 90.6789 21.3552 93.2559 14.3388C95.073 9.36398 100.523 6.77679 105.57 8.56788L105.57 8.56907C110.617 10.3602 113.241 15.7326 111.424 20.7074C109.203 26.8762 97.0909 60.7722 78.7206 68.1345C77.5019 68.6152 76.2832 69.0233 75.0644 69.3588C73.6826 69.7392 72.6644 70.959 72.6644 72.3922V103.489" stroke="url(#paint1_linear_8226_1778)" stroke-width="5" stroke-linecap="round"/>
</g>
<defs>
<linearGradient id="paint0_linear_8226_1778" x1="30" y1="16.6625" x2="73" y2="16.6625" gradientUnits="userSpaceOnUse">
<stop stop-color="#51B1CC"/>
<stop offset="0.5" stop-color="#6C3C74"/>
<stop offset="1" stop-color="#D42D50"/>
</linearGradient>
<linearGradient id="paint1_linear_8226_1778" x1="1" y1="47.9125" x2="112" y2="47.9125" gradientUnits="userSpaceOnUse">
<stop stop-color="#51B1CC"/>
<stop offset="0.5" stop-color="#6C3C74"/>
<stop offset="1" stop-color="#D42D50"/>
</linearGradient>
</defs>
</svg>
